<?xml version="1.0" standalone="no"?>
<!DOCTYPE svg PUBLIC "-//W3C//DTD SVG 20010904//EN"
 "http://www.w3.org/TR/2001/REC-SVG-20010904/DTD/svg10.dtd">
<svg version="1.0" xmlns="http://www.w3.org/2000/svg"
 width="640.000000pt" height="1280.000000pt" viewBox="0 0 640.000000 1280.000000"
 preserveAspectRatio="xMidYMid meet">
<metadata>
Created by potrace 1.15, written by Peter Selinger 2001-2017
</metadata>
<g transform="translate(0.000000,1280.000000) scale(0.100000,-0.100000)"
fill="#ffffff" stroke="none">
<path d="M2823 12785 c-164 -36 -301 -172 -328 -327 -8 -43 -15 -40 129 -58
49 -6 92 -8 96 -3 3 4 12 27 20 50 17 55 62 108 113 136 33 17 59 22 118 22
67 0 81 -3 124 -30 26 -17 56 -46 66 -65 23 -42 25 -110 4 -149 -8 -16 -64
-72 -125 -126 -61 -53 -125 -115 -141 -138 -39 -53 -59 -125 -59 -209 l0 -68
115 0 115 0 0 56 c0 30 5 65 11 77 6 12 76 85 155 162 169 166 189 198 188
315 0 55 -6 88 -22 123 -29 66 -120 158 -188 191 -108 53 -261 69 -391 41z"/>
<path d="M1957 12575 c-209 -59 -355 -202 -388 -379 -14 -78 2 -186 28 -186 8
0 59 14 114 31 l99 31 -6 38 c-24 150 92 280 248 280 70 0 107 -17 145 -67 47
-61 41 -112 -35 -270 -74 -155 -90 -219 -74 -298 13 -65 50 -155 64 -155 12 0
198 81 198 87 0 2 -9 31 -21 65 -25 74 -22 88 46 238 70 154 89 214 88 285 0
116 -77 227 -197 282 -52 24 -75 28 -161 30 -61 1 -119 -3 -148 -12z"/>
<path d="M3738 12555 c-32 -8 -76 -24 -98 -35 -44 -23 -130 -100 -130 -118 0
-11 161 -142 175 -142 4 0 23 14 43 31 48 43 95 60 158 60 181 0 308 -196 203
-316 -36 -40 -58 -48 -207 -75 -201 -36 -257 -65 -333 -174 -27 -38 -49 -73
-49 -77 0 -9 189 -124 194 -118 1 2 18 26 36 53 39 57 79 78 200 100 134 26
211 47 260 71 199 100 224 372 52 558 -135 145 -347 222 -504 182z"/>
<path d="M2840 11605 l0 -125 125 0 125 0 0 125 0 125 -125 0 -125 0 0 -125z"/>
<path d="M3390 11523 c-36 -61 -58 -109 -53 -114 12 -12 194 -119 202 -119 5
0 116 185 124 206 1 3 -46 34 -105 69 l-107 63 -61 -105z"/>
<path d="M2290 11563 c-58 -26 -106 -47 -107 -48 -4 -2 88 -209 97 -218 6 -7
210 72 228 88 5 5 -94 219 -103 221 -6 2 -57 -18 -115 -43z"/>
<path d="M1915 11109 c-288 -71 -521 -303 -596 -594 -26 -103 -28 -269 -4
-375 21 -92 80 -222 139 -303 107 -150 285 -268 472 -313 91 -22 277 -22 367
0 402 96 672 476 627 880 -40 345 -286 626 -620 706 -113 26 -274 26 -385 -1z"/>
<path d="M3710 11089 c-314 -56 -572 -291 -656 -599 -26 -91 -26 -320 -1 -410
103 -378 444 -627 831 -607 135 7 204 25 321 83 210 103 361 287 427 519 32
114 32 306 0 419 -80 278 -299 498 -572 576 -87 24 -265 34 -350 19z"/>
<path d="M1517 9355 c-56 -21 -131 -79 -170 -133 -75 -102 -87 -133 -315 -832
-123 -376 -376 -1150 -421 -1290 -54 -167 -64 -223 -52 -299 20 -124 78 -213
209 -321 104 -87 165 -151 194 -205 11 -22 225 -342 474 -711 250 -369 456
-678 459 -685 2 -8 30 -367 60 -799 l56 -785 29 -63 c33 -71 120 -165 174
-187 121 -51 322 28 382 150 l24 51 -15 219 c-8 121 -36 508 -60 860 -25 352
-45 667 -45 700 1 125 -2 149 -22 189 -11 22 -174 288 -361 591 -334 540 -341
552 -367 650 -15 55 -56 172 -92 260 -97 236 -112 292 -111 405 0 60 6 111 17
140 27 74 141 329 147 330 3 0 12 -42 19 -92 17 -129 26 -159 59 -205 75 -103
252 -111 333 -14 13 14 142 255 287 534 146 279 266 505 268 504 1 -2 -2 -19
-7 -38 -41 -139 -40 -13 -40 -4246 l0 -4033 335 0 335 0 -3 4068 c-2 3799 -4
4072 -20 4136 -9 38 -16 71 -14 72 1 2 114 -212 251 -474 137 -262 261 -493
275 -512 66 -83 176 -103 280 -51 98 50 110 72 145 266 l13 70 43 -130 43
-130 -251 -495 c-138 -272 -361 -711 -495 -975 l-244 -480 91 -7 c50 -3 95 -4
100 -1 6 4 6 -1 1 -13 -28 -66 -36 -109 -46 -222 -5 -70 -32 -390 -59 -712
-85 -1000 -94 -1114 -86 -1152 9 -50 84 -131 149 -162 78 -36 166 -51 214 -36
112 37 221 170 237 290 4 25 24 277 46 560 22 283 49 629 61 768 l20 254 117
206 118 207 544 -5 c300 -3 610 -5 690 -5 l145 0 27 160 c113 675 168 1409
139 1835 -20 287 -59 467 -130 608 -131 259 -581 816 -1026 1270 l-160 163
-170 -57 c-93 -31 -195 -63 -225 -72 -82 -22 -254 -20 -365 6 -49 11 -91 20
-92 18 -1 -1 59 -187 134 -412 l136 -409 -27 -170 c-16 -93 -31 -175 -35 -182
-3 -6 -75 122 -160 284 -85 163 -168 311 -185 331 -17 19 -51 44 -76 56 -43
19 -65 20 -490 20 l-446 0 -55 -27 c-30 -14 -64 -39 -75 -54 -12 -15 -88 -156
-169 -313 l-149 -284 -18 99 -17 100 94 210 c187 418 233 574 193 660 -18 39
-56 54 -167 65 -71 8 -129 21 -198 47 -189 69 -244 83 -323 82 -41 0 -92 -7
-113 -14z"/>
</g>
</svg>
