<svg xmlns="http://www.w3.org/2000/svg" xmlns:xlink="http://www.w3.org/1999/xlink" version="1.1" x="0px" y="0px" viewBox="0 0 198 36" style="enable-background:new 0 0 198 36;" xml:space="preserve" width="198"  height="36" >
<g id="Calque_2" style="display:none;">
	<rect x="-8.3" y="-6.3" style="display:inline;fill:#7A2D2D;" width="237.3" height="68.3"/>
</g>
<g id="Calque_1">
	<g style="enable-background:new    ;">
		<path style="fill:#FFFFFF;" d="M11.3,8.7v0.5H2.9v8.5h7.6v0.5H2.9V27H2.4V8.7H11.3z"/>
		<path style="fill:#FFFFFF;" d="M35,9.7c1.3,0.8,2.4,1.9,3.1,3.3c0.7,1.4,1.1,3,1.1,4.8s-0.4,3.4-1.1,4.8c-0.7,1.4-1.8,2.5-3.1,3.3    c-1.3,0.8-2.8,1.2-4.5,1.2S27.3,26.8,26,26c-1.3-0.8-2.4-1.9-3.1-3.3c-0.7-1.4-1.1-3-1.1-4.8s0.4-3.4,1.1-4.8    c0.7-1.4,1.8-2.5,3.1-3.3c1.3-0.8,2.8-1.2,4.5-1.2S33.6,8.9,35,9.7z M26.3,10.1c-1.2,0.7-2.2,1.8-3,3.1c-0.7,1.3-1.1,2.9-1.1,4.7    s0.4,3.3,1.1,4.7c0.7,1.3,1.7,2.4,3,3.1c1.2,0.7,2.6,1.1,4.2,1.1s2.9-0.4,4.2-1.1c1.2-0.7,2.2-1.8,3-3.1c0.7-1.3,1.1-2.9,1.1-4.7    s-0.4-3.3-1.1-4.7c-0.7-1.3-1.7-2.4-3-3.1C33.4,9.4,32,9,30.5,9S27.6,9.4,26.3,10.1z"/>
		<path style="fill:#FFFFFF;" d="M51.3,26.5h7V27h-7.5V8.7h0.5V26.5z"/>
		<path style="fill:#FFFFFF;" d="M69.4,26.5h7V27h-7.5V8.7h0.5V26.5z"/>
		<path style="fill:#FFFFFF;" d="M99.5,9.7c1.3,0.8,2.4,1.9,3.1,3.3c0.7,1.4,1.1,3,1.1,4.8s-0.4,3.4-1.1,4.8    c-0.7,1.4-1.8,2.5-3.1,3.3c-1.3,0.8-2.8,1.2-4.5,1.2s-3.2-0.4-4.5-1.2c-1.3-0.8-2.4-1.9-3.1-3.3c-0.7-1.4-1.1-3-1.1-4.8    s0.4-3.4,1.1-4.8c0.7-1.4,1.8-2.5,3.1-3.3c1.3-0.8,2.8-1.2,4.5-1.2S98.2,8.9,99.5,9.7z M90.8,10.1c-1.2,0.7-2.2,1.8-3,3.1    c-0.7,1.3-1.1,2.9-1.1,4.7s0.4,3.3,1.1,4.7c0.7,1.3,1.7,2.4,3,3.1c1.2,0.7,2.6,1.1,4.2,1.1s2.9-0.4,4.2-1.1c1.2-0.7,2.2-1.8,3-3.1    c0.7-1.3,1.1-2.9,1.1-4.7s-0.4-3.3-1.1-4.7c-0.7-1.3-1.7-2.4-3-3.1C97.9,9.4,96.5,9,95,9S92.1,9.4,90.8,10.1z"/>
		<path style="fill:#FFFFFF;" d="M135.7,8.7L130.8,27h-0.5l-5.4-17.4L119.4,27h-0.5L114,8.7h0.6l4.6,17.2l5.3-17.2h0.6l5.3,17.2    l4.6-17.2H135.7z"/>
		<path style="fill:#FFFFFF;" d="M162.3,8.7v11.4c0,2.3,0.5,4,1.5,5.1c1,1.1,2.4,1.6,4.1,1.6c1.7,0,3-0.5,4-1.6    c1-1.1,1.5-2.7,1.5-5.1V8.7h0.5v11.4c0,2.4-0.5,4.2-1.6,5.4c-1.1,1.2-2.5,1.7-4.4,1.7c-1.9,0-3.4-0.6-4.5-1.8s-1.7-3-1.7-5.4V8.7    H162.3z"/>
		<path style="fill:#FFFFFF;" d="M195.8,24.8c-0.3,0.7-0.9,1.3-1.6,1.7c-0.7,0.5-1.7,0.7-2.8,0.7c-1.1,0-2.1-0.2-2.9-0.6    s-1.5-1-2-1.7c-0.5-0.7-0.8-1.4-0.9-2.2h0.5c0.1,0.6,0.3,1.2,0.7,1.8c0.4,0.6,1,1.2,1.7,1.6c0.8,0.4,1.7,0.7,2.8,0.7    c1.4,0,2.5-0.4,3.3-1.2s1.1-1.8,1.1-2.9c0-1-0.2-1.8-0.7-2.4c-0.5-0.6-1-1.1-1.7-1.4c-0.7-0.3-1.6-0.6-2.7-1    c-1.1-0.3-2.1-0.7-2.8-1c-0.7-0.3-1.3-0.8-1.8-1.4s-0.7-1.5-0.7-2.6c0-1.3,0.4-2.3,1.3-3.1s2.1-1.2,3.7-1.2c1.6,0,2.8,0.4,3.7,1.2    c0.9,0.8,1.5,1.7,1.7,2.8h-0.5c-0.1-0.5-0.4-1-0.8-1.6c-0.4-0.5-0.9-1-1.6-1.4c-0.7-0.4-1.5-0.6-2.5-0.6c-1.3,0-2.4,0.3-3.2,1    c-0.8,0.7-1.2,1.6-1.2,2.9c0,1,0.2,1.7,0.7,2.3c0.4,0.6,1,1,1.6,1.3c0.6,0.3,1.5,0.6,2.7,0.9c1.2,0.3,2.1,0.7,2.8,1    c0.7,0.3,1.3,0.8,1.8,1.5c0.5,0.7,0.7,1.6,0.7,2.7C196.3,23.4,196.1,24.1,195.8,24.8z"/>
	</g>
</g>
</svg>