<?xml version="1.0" standalone="no"?>
<!DOCTYPE svg PUBLIC "-//W3C//DTD SVG 20010904//EN"
 "http://www.w3.org/TR/2001/REC-SVG-20010904/DTD/svg10.dtd">
<svg version="1.0" xmlns="http://www.w3.org/2000/svg"
 width="1280.000000pt" height="802.000000pt" viewBox="0 0 1280.000000 802.000000"
 preserveAspectRatio="xMidYMid meet">
<metadata>
Created by potrace 1.15, written by Peter Selinger 2001-2017
</metadata>
<g transform="translate(0.000000,802.000000) scale(0.100000,-0.100000)"
fill="#000000" stroke="none">
<path d="M5890 8009 c-579 -65 -1089 -385 -1435 -899 -80 -120 -196 -358 -238
-491 -151 -473 -189 -1009 -102 -1445 69 -343 209 -617 432 -844 61 -63 111
-115 110 -116 -10 -8 -344 -126 -507 -179 -790 -256 -1755 -460 -3170 -670
-184 -27 -931 -135 -937 -135 -2 0 -3 -21 -3 -48 l0 -47 214 -52 c748 -182
1477 -446 2016 -731 627 -331 1085 -678 1750 -1327 445 -434 567 -552 710
-681 179 -161 400 -344 416 -344 19 0 705 151 994 219 1180 276 2178 575 2965
889 446 177 720 304 1425 657 322 161 632 316 690 344 217 104 396 237 595
443 277 286 488 625 666 1071 113 282 222 677 278 1008 69 400 48 808 -60
1189 -160 566 -510 1057 -896 1258 -101 53 -143 68 -258 92 -102 22 -802 139
-1370 229 -209 33 -551 88 -760 121 -415 66 -858 136 -1660 260 -286 44 -750
117 -1031 160 -543 85 -629 92 -834 69z"/>
</g>
</svg>
