<svg xmlns:xlink="http://www.w3.org/1999/xlink" xmlns="http://www.w3.org/2000/svg" width="18" height="18" viewBox="0 0 18 18"><path fill-rule="evenodd" clip-rule="evenodd" fill="#CFCFCF" d="M9 18c-5 0-9-4-9-9s4-9 9-9 9 4 9 9-4 9-9 9zm-3.9-2c1.1.6 2.5 1 3.9 1s2.7-.4 3.9-1h.1c0-2-1-3-3-3H8c-2 0-3 1-3 3h.1zM9 1C4.6 1 1 4.6 1 9c0 2.5 1.2 4.8 3 6.3.3-1.8 1.4-3.3 4-3.3h2c2.6 0 3.7 1.5 4 3.3 1.9-1.5 3-3.7 3-6.3 0-4.4-3.6-8-8-8zM5 8c0-2.2 1.8-4 4-4s4 1.8 4 4-1.8 4-4 4-4-1.8-4-4zm4 3c1.7 0 3-1.3 3-3s-1.3-3-3-3-3 1.3-3 3 1.3 3 3 3z"/></svg>